MoBL_ARMS_module2_4_allmuscles_shoulder_states	
version=1	
nRows=294	
nColumns=2	
inDegrees=yes	
	
# SIMM Motion File Header:	
name MoBL_ARMS_module2_4_allmuscles_shoulder_states	
datacolumns 2	
datarows 294	
otherdata 1	
range 1.002926294 1.057232087	
endheader	
time	shoulder_elv
1.002926294	34.84913971
1.003097125	34.85873555
1.003267956	34.86833071
1.003535411	34.88335188
1.003668746	34.89083986
1.003751804	34.89550415
1.003834863	34.90016827
1.004087854	34.91437407
1.004215229	34.92152584
1.004316953	34.92723708
1.004418677	34.93294808
1.004666027	34.94683393
1.004851825	34.9572635
1.004958817	34.96326899
1.005065809	34.96927419
1.005322866	34.98370126
1.005538924	34.9958262
1.005637671	35.0013674
1.005736418	35.00690837
1.006230154	35.03460969
1.006467766	35.04793898
1.006617036	35.05631195
1.006701578	35.06105389
1.00678612	35.06579564
1.007034079	35.07970221
1.007165673	35.08708199
1.007265598	35.09268548
1.007365523	35.09828871
1.007663485	35.11499543
1.007875034	35.12685575
1.007972112	35.13229799
1.00806919	35.13774
1.008554582	35.16494683
1.008836634	35.18075356
1.009118687	35.19655857
1.009215424	35.20197884
1.00931216	35.20739887
1.009554582	35.2209805
1.009715175	35.22997693
1.009803889	35.23494642
1.009892603	35.23991569
1.010122032	35.25276619
1.010247237	35.25977855
1.010385271	35.26750888
1.010554283	35.27697342
1.010723294	35.28643711
1.011106177	35.30787403
1.01139778	35.32419809
1.011497455	35.32977743
1.011597129	35.3353565
1.011908069	35.35275919
1.012099433	35.36346833
1.012148732	35.36622704
1.012212097	35.36977277
1.01240185	35.3803903
1.012500532	35.38591163
1.012599215	35.39143269
1.013092626	35.41903442
1.01338582	35.43543273
1.013679013	35.451829
1.013798991	35.45853786
1.013918969	35.46524633
1.01407719	35.47409262
1.014235411	35.48293813
1.014659273	35.50663152
1.014912743	35.52079813
1.014995271	35.5254103
1.015077799	35.53002227
1.015329881	35.5441085
1.015457811	35.55125656
1.015623881	35.56053496
1.015750729	35.56762146
1.015855046	35.57344888
1.015959362	35.57927598
1.016187991	35.59204614
1.01631184	35.59896324
1.016472285	35.60792353
1.016555835	35.61258924
1.016639385	35.61725475
1.016911266	35.63243551
1.017037247	35.63946911
1.017143916	35.64542416
1.017250586	35.65137888
1.017533577	35.66717519
1.017816568	35.68296897
1.018209042	35.7048696
1.018723671	35.73358063
1.018839629	35.74004883
1.018955586	35.74651665
1.019111639	35.75522037
1.019267693	35.76392327
1.019762526	35.7915152
1.020011947	35.8054205
1.020261369	35.81932394
1.020487971	35.83195392
1.020592552	35.83778236
1.020697133	35.84361046
1.020946302	35.85749498
1.021195471	35.8713776
1.021445954	35.88533173
1.021615631	35.89478325
1.021785307	35.90423372
1.022633691	35.95147406
1.022826406	35.96220218
1.023093034	35.97704301
1.023359661	35.9918814
1.023772009	36.01482554
1.024088037	36.03240692
1.024342105	36.04653925
1.024484729	36.05447173
1.024658133	36.06411526
1.024831536	36.07375781
1.025048148	36.08580187
1.025155148	36.09175073
1.025262148	36.09769921
1.025797146	36.12743636
1.025875048	36.13176563
1.025952949	36.13609468
1.026269879	36.15370497
1.026352596	36.1583007
1.026435314	36.16289618
1.026778071	36.18193625
1.026863893	36.18670309
1.026949716	36.19146968
1.027235528	36.20734216
1.027370973	36.21486312
1.027538743	36.22417823
1.027706513	36.2334923
1.028141861	36.25765754
1.028390864	36.27147652
1.028513709	36.27829336
1.028667149	36.28680731
1.02882059	36.29532044
1.02908333	36.30989598
1.029303558	36.32211147
1.029403611	36.32766059
1.029503664	36.33320936
1.030003929	36.36094822
1.030148422	36.36895858
1.030234532	36.37373196
1.030320643	36.37850508
1.030573535	36.39252163
1.030706784	36.39990612
1.0307965	36.40487771
1.030886217	36.40984902
1.031119902	36.42279664
1.031247634	36.42987306
1.031392378	36.43789123
1.031566978	36.44756232
1.031741578	36.45723228
1.032045561	36.47406565
1.032262028	36.48605089
1.032358229	36.49137677
1.03245443	36.49670231
1.032722122	36.51151979
1.032908898	36.52185694
1.033019658	36.52798633
1.033130418	36.53411528
1.033365171	36.54710416
1.033494198	36.55424243
1.033624102	36.56142859
1.033783636	36.57025305
1.033943171	36.57907657
1.034209432	36.59380112
1.034325732	36.60023184
1.034442032	36.60666208
1.034607052	36.61578534
1.034772073	36.62490758
1.035081911	36.64203284
1.035192283	36.64813244
1.035302655	36.6542316
1.035539327	36.66730869
1.035673533	36.67472327
1.035777958	36.68049206
1.035882384	36.68626043
1.036151025	36.70109825
1.036374508	36.71343993
1.036527744	36.7219012
1.036718755	36.73244711
1.03691301	36.74317086
1.037107265	36.75389309
1.037530231	36.77723487
1.037826257	36.79356769
1.037980818	36.8020942
1.038135379	36.81061974
1.038443694	36.82762382
1.038658828	36.83948686
1.038755858	36.8448368
1.038852889	36.85018636
1.039117008	36.86474633
1.039300082	36.87483712
1.039409708	36.88087889
1.039519334	36.8869202
1.039786284	36.90162962
1.040009825	36.91394512
1.040105534	36.9192174
1.040201243	36.92448933
1.040434149	36.93731708
1.040561885	36.94435155
1.040725963	36.95338649
1.04091713	36.96391167
1.041108296	36.97443555
1.041319133	36.98604078
1.04141505	36.99131985
1.041510968	36.99659855
1.041821711	37.01369767
1.041975467	37.02215706
1.04223664	37.03652418
1.042497812	37.05088872
1.042607259	37.05690755
1.042662113	37.05992395
1.042849069	37.07020373
1.043046898	37.08107986
1.043238544	37.09161465
1.043408079	37.10093281
1.043577614	37.11024979
1.04386335	37.12595036
1.044040215	37.13566718
1.04434652	37.15249228
1.044652824	37.1693139
1.044735607	37.17385953
1.04481839	37.17840488
1.045110249	37.19442793
1.045226529	37.20081078
1.045342809	37.20719308
1.04552476	37.21717884
1.045780204	37.23119584
1.046035648	37.24521008
1.046385222	37.26438457
1.046630471	37.27783397
1.046777612	37.28590199
1.046868972	37.29091095
1.046960331	37.29591957
1.047206383	37.3094073
1.047346634	37.31709431
1.047472565	37.32399577
1.047598496	37.33089659
1.0476957	37.33622273
1.047792904	37.34154847
1.048172642	37.36235062
1.048296901	37.36915631
1.04842116	37.37596136
1.048592187	37.38532672
1.048763215	37.39469083
1.049059517	37.41091131
1.049182234	37.41762819
1.049304952	37.42434446
1.049460134	37.43283657
1.049615316	37.44132767
1.049837048	37.45345854
1.049941605	37.45917809
1.050046161	37.46489716
1.050434046	37.48610999
1.050570634	37.49357839
1.050657426	37.49832361
1.050772926	37.50463783
1.050881547	37.51057548
1.050990168	37.51651261
1.051233462	37.52980921
1.051378416	37.53773008
1.051469119	37.54268602
1.051559823	37.5476416
1.051815177	37.56159112
1.051955631	37.56926274
1.052047394	37.57427431
1.052139156	37.57928551
1.052389143	37.59293574
1.052528514	37.60054485
1.052633919	37.60629891
1.052739324	37.61205247
1.053147588	37.6343335
1.05328269	37.64170517
1.053403464	37.64829437
1.053524239	37.65488293
1.053690822	37.66396951
1.053857405	37.67305482
1.054161379	37.68963039
1.05441076	37.70322623
1.054660142	37.71681927
1.054970903	37.73375425
1.055213537	37.74697391
1.055456172	37.76019093
1.055705843	37.77378869
1.055861112	37.78224372
1.055951284	37.78715343
1.056041456	37.79206277
1.056312112	37.80679638
1.056453438	37.81448842
1.056543675	37.81939935
1.056633912	37.8243099
1.056900399	37.83880966
1.057042612	37.84654629
1.05713735	37.85169965
1.057232087	37.85685259
